<?xml version="1.0" encoding="utf-8"?>
<!-- Generator: Adobe Illustrator 16.0.3, SVG Export Plug-In . SVG Version: 6.00 Build 0)  -->
<!DOCTYPE svg PUBLIC "-//W3C//DTD SVG 1.1//EN" "http://www.w3.org/Graphics/SVG/1.1/DTD/svg11.dtd">
<svg version="1.1" xmlns="http://www.w3.org/2000/svg" xmlns:xlink="http://www.w3.org/1999/xlink" x="0px" y="0px" width="128px"
	 height="128px" viewBox="0 0 128 128" enable-background="new 0 0 128 128" xml:space="preserve">
<g id="Ebene_2">
</g>
<g id="Ebene_1" display="none">
	<path display="inline" fill="#00325A" d="M92.679,87.327c-7.366-10.271-12.264-8.001-16.785-10.088
		c-4.522-2.087-3.479-9.045-3.479-9.045L64,66.9l-8.414,1.294c0,0,1.043,6.958-3.479,9.045s-9.419-0.184-16.786,10.088
		c-5.739,8.002-4.174,31.657-4.174,31.657h27.699h10.308h27.699C96.854,118.984,98.418,95.329,92.679,87.327z"/>
	<path display="inline" fill="#00325A" d="M64,75.122c-22.125,0-33.547-52.514,0-52.514C97.547,22.608,86.125,75.122,64,75.122z"/>
	<path display="inline" fill="#00325A" d="M52.502,49.407c1.09,4.508-3.872,9.576-5.982,10.087c-2.111,0.51-4.707-2.73-5.797-7.238
		c-1.09-4.507-0.262-8.576,1.849-9.086C44.682,42.658,51.412,44.899,52.502,49.407z"/>
	<path display="inline" fill="#00325A" d="M75.479,49.407c-1.09,4.508,3.871,9.576,5.982,10.087c2.111,0.51,4.707-2.73,5.797-7.238
		c1.09-4.507,0.262-8.576-1.85-9.086C83.3,42.658,76.569,44.899,75.479,49.407z"/>
	<path display="inline" fill="#00325A" d="M223.679,89.327c-7.366-10.271-13.264-9.001-17.785-11.088
		c-2.108-0.974-3-4.004-3.359-5.896c4.097-2.794,7.432-7.449,9.633-12.821c1.954-0.247,5.354-15.843,3.242-16.354
		c-0.109-0.026-0.239-0.041-0.372-0.053C214.43,32.16,205.291,22.608,194,22.608s-20.43,9.551-21.037,20.505
		c-0.141,0.012-0.275,0.028-0.391,0.056c-2.111,0.51,1.303,16.125,3.262,16.355c2.201,5.373,5.535,10.027,9.632,12.82
		c-0.358,1.893-1.25,4.923-3.358,5.896c-4.521,2.087-10.42,0.816-17.786,11.088c-5.739,8.002-6.175,30.657-6.175,30.657h71.707
		C229.854,119.984,229.418,97.329,223.679,89.327z"/>
	<g display="inline">
		<path fill="#00325A" d="M194.001,22.606c-19.357-1.105-24.721,13.453-23.131,23.04c1.535,9.259,2.372,18.077-1.027,20.854
			c2.94,1.36,5.03-0.705,6.514-1.619c-0.487,5.913-7.833,8.132-7.833,8.132c3.67,3.332,15.468,2.379,17.829-1.508
			C188.714,67.617,194.001,22.606,194.001,22.606z"/>
		<path fill="#00325A" d="M194.046,22.606c19.357-1.105,24.721,13.453,23.131,23.04c-1.535,9.259-2.372,18.077,1.027,20.854
			c-2.94,1.36-5.03-0.705-6.514-1.619c0.487,5.913,7.833,8.132,7.833,8.132c-3.67,3.332-15.468,2.379-17.829-1.508
			C199.333,67.617,194.046,22.606,194.046,22.606z"/>
	</g>
	<g display="inline">
		<path fill="#9BA096" d="M252.393,75.464c3.485,3.055,13.354,3.584,16.631,0.549c0,0-7.203-2.219-7.68-8.132
			c1.453,0.914,3.504,2.979,6.387,1.619c-3.333-2.777-2.513-11.595-1.008-20.854c1.559-9.587-3.699-24.145-22.677-23.04
			c0,0,0,0.003,0.004,0.004c-0.019,0-0.033-0.002-0.049-0.002v-0.001c-18.978-1.105-24.235,13.453-22.677,23.04
			c1.505,9.259,2.325,18.077-1.005,20.854c2.877,1.36,4.928-0.705,6.384-1.619c-0.479,5.913-7.68,8.132-7.68,8.132
			c3.26,3.02,13.042,2.511,16.575-0.501C237.535,73.314,249.756,72.992,252.393,75.464z"/>
		<path fill="#9BA096" d="M271.425,91.327c-4.226-10.086-11.844-8.419-14.786-9.088s-3.945-7.829-4.323-9.728
			c0,0-5.485-8.329-8.403-9.445v-0.037c-0.013,0.004-0.026,0.014-0.039,0.019c-0.013-0.004-0.026-0.014-0.039-0.019v0.037
			c-2.918,1.117-8.403,9.445-8.403,9.445c-0.378,1.898-1.381,9.059-4.323,9.728s-10.561-0.998-14.786,9.088
			c-3.848,9.184-4.175,28.657-4.175,28.657h31.688h0.078H275.6C275.6,119.984,275.272,100.511,271.425,91.327z"/>
	</g>
	<path display="inline" fill="#9BA096" d="M-20.085,90.063c-4.709-11.239-13.198-9.381-16.478-10.127
		c-2.138-0.487-3.353-4.041-4.06-7.048c4.347,2.946,14.401,3.314,17.862,0.108c0,0-8.027-4.746-8.559-11.337
		c1.62,1.02,3.905,3.32,7.118,1.806c-3.715-3.096-3.938-10.648-2.261-20.967c1.736-10.684-2.985-26.908-24.135-25.675
		c0,0,0,0.003,0.004,0.004c-0.02,0-0.037-0.003-0.054-0.003v-0.001c-21.148-1.232-25.872,14.991-24.134,25.675
		c1.678,10.319,1.454,17.871-2.257,20.967c3.207,1.515,5.492-0.786,7.114-1.806c-0.534,6.591-8.559,11.337-8.559,11.337
		c3.362,3.114,12.936,2.855,17.467,0.141c-0.714,2.95-1.922,6.326-4,6.799c-3.279,0.746-11.769-1.112-16.479,10.127
		C-85.781,100.299-86.146,122-86.146,122h35.313h0.086h35.314C-15.432,122-15.796,100.299-20.085,90.063z"/>
</g>
<g id="Ebene_1_Kopie">
</g>
<g id="Ebene_4">
	<g>
		<linearGradient id="SVGID_1_" gradientUnits="userSpaceOnUse" x1="64.0005" y1="118.7715" x2="64.0005" y2="54.1071">
			<stop  offset="0.3" style="stop-color:#426080"/>
			<stop  offset="1" style="stop-color:#819CBD"/>
		</linearGradient>
		<path fill="url(#SVGID_1_)" d="M119,110.464c0,4.746-3.847,8.594-8.594,8.594H17.594c-4.746,0-8.594-3.848-8.594-8.594V62.339
			c0-4.747,3.848-8.594,8.594-8.594h92.813c4.747,0,8.594,3.847,8.594,8.594V110.464z"/>
		<g>
			<path fill="#FFFFFF" d="M71.931,84.986l12.715,12.756c0.559,0.56,0.839,1.225,0.839,1.993c0,0.77-0.28,1.42-0.839,1.951
				l-3.944,3.944c-0.532,0.56-1.19,0.84-1.973,0.84c-0.784,0-1.441-0.28-1.973-0.84L64,92.917l-12.756,12.714
				c-0.532,0.56-1.189,0.84-1.972,0.84c-0.784,0-1.441-0.28-1.972-0.84l-3.944-3.944c-0.56-0.531-0.839-1.182-0.839-1.951
				c0-0.769,0.279-1.434,0.839-1.993l12.714-12.756L43.355,72.271c-0.56-0.56-0.839-1.224-0.839-1.993
				c0-0.769,0.279-1.434,0.839-1.993l3.944-3.944c0.531-0.531,1.188-0.797,1.972-0.797c0.783,0,1.44,0.266,1.972,0.797L64,77.098
				l12.756-12.757c0.531-0.531,1.188-0.797,1.973-0.797c0.782,0,1.44,0.266,1.973,0.797l3.944,3.944
				c0.559,0.56,0.839,1.225,0.839,1.993c0,0.77-0.28,1.434-0.839,1.993L71.931,84.986z"/>
		</g>
		<g>
			<polygon fill="none" points="46.834,43.556 81.165,43.556 63.999,23.439 			"/>
			<polygon fill="#404547" points="63.999,23.439 81.165,43.556 95.462,43.556 65.521,8.469 63.999,6.686 62.478,8.469 
				32.537,43.556 46.834,43.556 			"/>
		</g>
	</g>
</g>
</svg>
