<svg id="Layer_1" data-name="Layer 1" xmlns="http://www.w3.org/2000/svg" xmlns:xlink="http://www.w3.org/1999/xlink" viewBox="0 0 111.84 111.84"><defs><linearGradient id="linear-gradient" x1="81.38" y1="-1.1" x2="81.38" y2="112" gradientUnits="userSpaceOnUse"><stop offset="0" stop-color="#8099ba"/><stop offset="1" stop-color="#425e7f"/></linearGradient><linearGradient id="linear-gradient-2" x1="33.02" y1="-1.1" x2="33.02" y2="112" xlink:href="#linear-gradient"/><linearGradient id="linear-gradient-3" x1="14.11" y1="-1.1" x2="14.11" y2="112" xlink:href="#linear-gradient"/></defs><title>teamspeak_vectors</title><path d="M82.86,54.63c16,0,28.17,12.08,28.18,28,0,16.21-12.18,28.33-28.45,28.3-15.85,0-27.87-12.25-27.86-28.33S66.79,54.61,82.86,54.63Zm15.59,19.5C90.92,81.74,84,88.89,76.9,95.82c-3,2.88-1.36,3.49,1.43,4.19,7.15,1.79,13.25-.18,18-5.6C101.29,88.64,102.18,82,98.45,74.13ZM90.64,67C82.52,63.2,74.28,65,69,71.47c-4.75,5.87-5.35,13.6-1.71,18.69Z" style="fill:#454b4c"/><path d="M81,.91C64.45,1,51.78,14.1,51.85,31.1a28.43,28.43,0,0,0,7,18.62c1.77,2.13,3.3,2.51,5.88,1,11.3-6.66,23-6.33,34.59-.9,2.77,1.29,4.14.6,5.78-1.48,4.3-5.48,5.69-11.9,5.77-18.57C111.09,13.74,97.58.86,81,.91Z" style="fill:url(#linear-gradient)"/><path d="M44.22,44.53c-10.43,10.59-20.54,21-30.79,31.18-1.92,1.91-1.17,2.92.34,4.39,4.3,4.18,8.5,8.46,12.75,12.7,7.57,7.57,7.48,7.47,15.33-.1,2.91-2.81,4.53-5.53,4.24-9.88a32,32,0,0,1,6.3-21c.94-1.32,2.3-2.45.43-4.21C49.14,54.12,46.88,49.65,44.22,44.53Z" style="fill:url(#linear-gradient-2)"/><path d="M25.72,103.65C19.67,98,13.81,92.13,8.15,86.09c-2.74-2.92-3.84-1.6-5.27,1a15.92,15.92,0,0,0,14.33,23.77,14.39,14.39,0,0,0,7.59-1.93C27.5,107.58,28.61,106.35,25.72,103.65Z" style="fill:url(#linear-gradient-3)"/></svg>