<?xml version="1.0" encoding="iso-8859-1"?>
<!-- Generator: Adobe Illustrator 15.0.0, SVG Export Plug-In . SVG Version: 6.00 Build 0)  -->
<!DOCTYPE svg PUBLIC "-//W3C//DTD SVG 1.1//EN" "http://www.w3.org/Graphics/SVG/1.1/DTD/svg11.dtd">
<svg version="1.1" id="Ebene_4" xmlns="http://www.w3.org/2000/svg" xmlns:xlink="http://www.w3.org/1999/xlink" x="0px" y="0px"
	 width="128px" height="128px" viewBox="0 0 128 128" enable-background="new 0 0 128 128" xml:space="preserve">
<g>
	<g>
		<path fill="#404547" d="M98.91,87.138l18.842,18.911c0.832,0.826,1.248,1.812,1.248,2.952c0,1.14-0.416,2.104-1.248,2.892
			l-5.843,5.85c-0.785,0.829-1.764,1.243-2.926,1.243c-1.155,0-2.133-0.414-2.922-1.243L87.164,98.897l-18.903,18.845
			c-0.788,0.829-1.763,1.243-2.923,1.243c-1.159,0-2.133-0.414-2.922-1.243l-5.846-5.85c-0.828-0.788-1.24-1.752-1.24-2.892
			c0-1.141,0.412-2.126,1.24-2.952l18.844-18.911L55.97,67.414c-0.829-0.832-1.241-1.815-1.241-2.958
			c0-1.138,0.412-2.123,1.241-2.955l5.846-5.848c0.79-0.786,1.763-1.181,2.921-1.181c1.161,0,2.135,0.395,2.924,1.181l19.504,19.789
			l18.897-18.916c0.789-0.786,1.767-1.181,2.922-1.181c1.162,0,2.141,0.395,2.926,1.181l5.843,5.849
			c0.832,0.831,1.248,1.817,1.248,2.955c0,1.141-0.416,2.125-1.248,2.956L98.91,87.138z"/>
	</g>
</g>
<g>
	<linearGradient id="SVGID_1_" gradientUnits="userSpaceOnUse" x1="11.9937" y1="113.8887" x2="109.1625" y2="16.7199">
		<stop  offset="0.3" style="stop-color:#426080"/>
		<stop  offset="1" style="stop-color:#819CBD"/>
	</linearGradient>
	<path fill="url(#SVGID_1_)" d="M73.727,49.565l0.025,0.026l0.026,0.026L87.205,63.24l13.653-13.666
		c2.386-2.379,5.578-3.689,8.988-3.689c2.72,0,5.292,0.837,7.429,2.375c3.462-9.649,1.626-22.044-6.955-30.631
		C98.817,6.123,80.102,6.124,68.598,17.631c-7.775,7.781-10.286,18.86-7.546,28.778c1.179-0.35,2.416-0.533,3.685-0.533
		C68.147,45.875,71.341,47.186,73.727,49.565z"/>
	<g>
		<linearGradient id="SVGID_2_" gradientUnits="userSpaceOnUse" x1="13.0493" y1="114.9434" x2="110.218" y2="17.7746">
			<stop  offset="0.3" style="stop-color:#426080"/>
			<stop  offset="1" style="stop-color:#819CBD"/>
		</linearGradient>
		<path fill="url(#SVGID_2_)" d="M13.652,114.345c6.195,6.202,16.233,6.207,22.438,0.015L13.637,91.895
			C7.449,98.103,7.455,108.145,13.652,114.345z"/>
		<linearGradient id="SVGID_3_" gradientUnits="userSpaceOnUse" x1="13.0435" y1="114.9385" x2="110.212" y2="17.7699">
			<stop  offset="0.3" style="stop-color:#426080"/>
			<stop  offset="1" style="stop-color:#819CBD"/>
		</linearGradient>
		<path fill="url(#SVGID_3_)" d="M63.313,87.105L49.861,73.46c-2.402-2.423-3.725-5.618-3.725-9.003
			c0-2.797,0.917-5.459,2.594-7.674L19.713,85.814l22.455,22.467l14.697-14.705L63.313,87.105z"/>
	</g>
</g>
</svg>
