<?xml version="1.0" encoding="iso-8859-1"?>
<!-- Generator: Adobe Illustrator 15.0.0, SVG Export Plug-In . SVG Version: 6.00 Build 0)  -->
<!DOCTYPE svg PUBLIC "-//W3C//DTD SVG 1.1//EN" "http://www.w3.org/Graphics/SVG/1.1/DTD/svg11.dtd">
<svg version="1.1" xmlns="http://www.w3.org/2000/svg" xmlns:xlink="http://www.w3.org/1999/xlink" x="0px" y="0px" width="128px"
	 height="128px" viewBox="0 0 128 128" enable-background="new 0 0 128 128" xml:space="preserve">
<g id="Ebene_5" display="none">
	<g display="inline">
		<g>
			<linearGradient id="SVGID_1_" gradientUnits="userSpaceOnUse" x1="90.6016" y1="128" x2="90.6016" y2="52.96">
				<stop  offset="0" style="stop-color:#C9070A"/>
				<stop  offset="1" style="stop-color:#DF6A6C"/>
			</linearGradient>
			<path fill="url(#SVGID_1_)" d="M104.62,90.954l21.928,21.998c0.968,0.961,1.452,2.106,1.452,3.434
				c0,1.325-0.484,2.447-1.452,3.363l-6.8,6.805c-0.914,0.965-2.053,1.446-3.405,1.446c-1.345,0-2.482-0.481-3.4-1.446
				l-21.992-21.92l-21.999,21.92c-0.918,0.965-2.052,1.446-3.402,1.446c-1.349,0-2.481-0.481-3.4-1.446l-6.803-6.805
				c-0.964-0.916-1.444-2.038-1.444-3.363c0-1.327,0.48-2.473,1.444-3.434l21.93-21.998L54.646,68.012
				c-0.964-0.967-1.444-2.111-1.444-3.439c0-1.323,0.48-2.47,1.444-3.437l6.803-6.803c0.919-0.915,2.051-1.374,3.4-1.374
				c1.351,0,2.484,0.459,3.402,1.374L90.95,77.351l21.992-22.002c0.918-0.915,2.056-1.374,3.4-1.374
				c1.353,0,2.491,0.459,3.405,1.374l6.8,6.803c0.968,0.967,1.452,2.113,1.452,3.437c0,1.327-0.484,2.472-1.452,3.438L104.62,90.954
				z"/>
		</g>
	</g>
</g>
<g id="Ebene_2" display="none">
	<g display="inline">
		<g>
			<g>
				<g>
					<g>
						<linearGradient id="SVGID_2_" gradientUnits="userSpaceOnUse" x1="92.7363" y1="128" x2="92.7363" y2="0.3265">
							<stop  offset="0.1" style="stop-color:#101719"/>
							<stop  offset="1" style="stop-color:#B7B9BA"/>
						</linearGradient>
						<path fill="url(#SVGID_2_)" d="M84.873,106.959c-1.297,0-2.594-0.502-3.572-1.502c-1.933-1.974-1.898-5.139,0.074-7.07
							c4.509-4.415,8.036-9.632,10.483-15.508c2.482-5.933,3.74-12.249,3.74-18.782c0-6.542-1.256-12.857-3.732-18.771
							c-2.449-5.891-5.978-11.113-10.492-15.535c-1.973-1.932-2.005-5.098-0.073-7.07c1.933-1.974,5.098-2.005,7.071-0.073
							c5.479,5.366,9.76,11.701,12.723,18.827c2.987,7.133,4.504,14.748,4.504,22.623c0,7.865-1.519,15.481-4.513,22.635
							c-2.963,7.113-7.241,13.44-12.715,18.799C87.398,106.484,86.135,106.959,84.873,106.959z"/>
					</g>
				</g>
				<g>
					<g>
						<linearGradient id="SVGID_3_" gradientUnits="userSpaceOnUse" x1="111.8613" y1="128" x2="111.8613" y2="0.3267">
							<stop  offset="0.1" style="stop-color:#101719"/>
							<stop  offset="1" style="stop-color:#B7B9BA"/>
						</linearGradient>
						<path fill="url(#SVGID_3_)" d="M100.723,122.782c-1.29,0-2.579-0.496-3.557-1.486c-1.941-1.964-1.922-5.13,0.043-7.07
							c6.534-6.457,11.686-14.083,15.309-22.666C116.156,82.963,118,73.725,118,64.097c0-9.639-1.843-18.879-5.479-27.463
							c-3.635-8.606-8.787-16.282-15.315-22.817c-1.952-1.954-1.95-5.119,0.003-7.071c1.954-1.952,5.119-1.951,7.071,0.003
							c7.444,7.451,13.315,16.195,17.452,25.99c4.158,9.82,6.268,20.372,6.268,31.358c0,10.974-2.11,21.524-6.271,31.356
							c-4.134,9.793-10.02,18.504-17.492,25.886C103.263,122.302,101.992,122.782,100.723,122.782z"/>
					</g>
				</g>
			</g>
			<linearGradient id="SVGID_4_" gradientUnits="userSpaceOnUse" x1="51.5825" y1="128" x2="51.5825" y2="0.3265">
				<stop  offset="0.1" style="stop-color:#101719"/>
				<stop  offset="1" style="stop-color:#B7B9BA"/>
			</linearGradient>
			<polygon fill="url(#SVGID_4_)" points="67.986,0 35.176,34.516 35.176,93.463 67.989,128 			"/>
		</g>
		<g>
			<linearGradient id="SVGID_5_" gradientUnits="userSpaceOnUse" x1="12.5879" y1="128" x2="12.5879" y2="0.3266">
				<stop  offset="0.1" style="stop-color:#101719"/>
				<stop  offset="1" style="stop-color:#B7B9BA"/>
			</linearGradient>
			<path fill="url(#SVGID_5_)" d="M9.852,34.516c-2.776,0-5.108,0.981-7.001,2.927C0.946,39.389,0,41.7,0,44.369V83.61
				c0,2.661,0.946,4.981,2.851,6.916c1.893,1.957,4.225,2.937,7.001,2.937h15.324V34.516H9.852z"/>
		</g>
	</g>
</g>
<g id="Ebene_1_Kopie" display="none">
	<g display="inline">
		<linearGradient id="SVGID_6_" gradientUnits="userSpaceOnUse" x1="5.3989" y1="122.6025" x2="63.7175" y2="64.2839">
			<stop  offset="0" style="stop-color:#101719"/>
			<stop  offset="1" style="stop-color:#707475"/>
		</linearGradient>
		<path fill="url(#SVGID_6_)" d="M60.978,67.021c-4.645-4.645-8.081-10.045-10.328-15.804l-3.844,3.846L5.398,96.469
			c-7.22,7.219-7.219,18.915,0,26.133c7.216,7.221,18.914,7.221,26.134,0l41.405-41.406l3.847-3.845
			C71.022,75.104,65.625,71.669,60.978,67.021z"/>
		
			<linearGradient id="SVGID_7_" gradientUnits="userSpaceOnUse" x1="55.3203" y1="60.1484" x2="55.3203" y2="-8.5166" gradientTransform="matrix(0.7071 0.7071 -0.7071 0.7071 72.7578 -22.9923)">
			<stop  offset="0" style="stop-color:#878B8C"/>
			<stop  offset="1" style="stop-color:#DBDCDC"/>
		</linearGradient>
		<path fill="url(#SVGID_7_)" d="M117.898,10.104C104.512-3.281,82.73-3.28,69.343,10.105c-13.383,13.384-13.383,35.165,0,48.549
			c13.388,13.385,35.167,13.385,48.554,0.001C131.281,45.27,131.281,23.487,117.898,10.104z"/>
	</g>
</g>
<g id="Ebene_4">
	<linearGradient id="SVGID_8_" gradientUnits="userSpaceOnUse" x1="67.0088" y1="117.5566" x2="67.0088" y2="10.4007">
		<stop  offset="0.1" style="stop-color:#101719"/>
		<stop  offset="1" style="stop-color:#B7B9BA"/>
	</linearGradient>
	<path fill="url(#SVGID_8_)" d="M67.427,46.207v-0.141h-0.836C66.871,46.106,67.151,46.148,67.427,46.207z"/>
	<g>
		<linearGradient id="SVGID_9_" gradientUnits="userSpaceOnUse" x1="113.957" y1="119" x2="113.957" y2="9.004">
			<stop  offset="0.3" style="stop-color:#426080"/>
			<stop  offset="1" style="stop-color:#819CBD"/>
		</linearGradient>
		<path fill="url(#SVGID_9_)" d="M113.975,90.105c1.157-2.852,2.131-5.765,2.889-8.743l-5.812,5.812L113.975,90.105z"/>
		<g>
			<linearGradient id="SVGID_10_" gradientUnits="userSpaceOnUse" x1="87.9854" y1="119.001" x2="87.9853" y2="9.0044">
				<stop  offset="0.3" style="stop-color:#426080"/>
				<stop  offset="1" style="stop-color:#819CBD"/>
			</linearGradient>
			<path fill="url(#SVGID_10_)" d="M96.433,46.065c-0.182-0.475-0.357-0.953-0.555-1.423c-2.546-6.124-6.225-11.568-10.934-16.179
				c-1.695-1.661-4.416-1.633-6.076,0.063c-1.66,1.695-1.633,4.416,0.063,6.076c3.391,3.321,6.134,7.168,8.177,11.464
				c0.295,0.62,0.575,1.249,0.84,1.886c1.552,3.707,2.54,7.598,2.965,11.613l7.418-7.422C97.831,50.079,97.194,48.053,96.433,46.065
				z"/>
			<linearGradient id="SVGID_11_" gradientUnits="userSpaceOnUse" x1="104.4551" y1="119" x2="104.4551" y2="9.0049">
				<stop  offset="0.3" style="stop-color:#426080"/>
				<stop  offset="1" style="stop-color:#819CBD"/>
			</linearGradient>
			<path fill="url(#SVGID_11_)" d="M116.66,46.065c-0.811-3.042-1.816-6.026-3.046-8.93c-3.556-8.417-8.601-15.932-14.998-22.335
				c-1.678-1.679-4.397-1.681-6.077-0.003c-1.679,1.677-1.681,4.397-0.003,6.077c5.61,5.616,10.038,12.212,13.162,19.608
				c0.773,1.828,1.452,3.69,2.036,5.583c0.079,0.256,0.145,0.517,0.22,0.775c0.341-0.027,0.683-0.05,1.028-0.05
				c3.261,0,6.309,1.205,8.649,3.378C117.355,48.788,117.021,47.423,116.66,46.065z"/>
			<linearGradient id="SVGID_12_" gradientUnits="userSpaceOnUse" x1="53.3281" y1="118.999" x2="53.3281" y2="9.0034">
				<stop  offset="0.3" style="stop-color:#426080"/>
				<stop  offset="1" style="stop-color:#819CBD"/>
			</linearGradient>
			<path fill="url(#SVGID_12_)" d="M67.426,9L39.229,38.662v7.403v43.254l10.709,11.272c0.177-0.199,0.348-0.401,0.538-0.591
				l12.83-12.869l-13.453-13.64c-2.403-2.423-3.726-5.616-3.726-9c0-3.393,1.331-6.596,3.758-9.03l5.859-5.858
				c1.945-1.938,4.43-3.15,7.126-3.538c0.611-0.087,1.229-0.147,1.859-0.147c0.63,0,1.249,0.06,1.861,0.147h0.836L67.426,9z"/>
			<linearGradient id="SVGID_13_" gradientUnits="userSpaceOnUse" x1="19.8179" y1="118.999" x2="19.8179" y2="9.0045">
				<stop  offset="0.3" style="stop-color:#426080"/>
				<stop  offset="1" style="stop-color:#819CBD"/>
			</linearGradient>
			<path fill="url(#SVGID_13_)" d="M17.467,38.662c-2.386,0-4.39,0.843-6.017,2.515c-1.378,1.407-2.165,3.041-2.381,4.888
				C9.028,46.414,9,46.766,9,47.13v33.723c0,2.287,0.813,4.281,2.45,5.943c1.627,1.682,3.63,2.523,6.017,2.523h13.168V46.065v-7.403
				H17.467z"/>
		</g>
	</g>
	<g>
		<path fill="#404547" d="M98.908,87.164l18.844,18.904c0.832,0.826,1.248,1.811,1.248,2.95s-0.416,2.104-1.248,2.891l-5.844,5.848
			c-0.785,0.829-1.764,1.243-2.926,1.243c-1.156,0-2.134-0.414-2.923-1.243L87.16,98.92l-18.905,18.837
			c-0.789,0.829-1.764,1.243-2.924,1.243c-1.159,0-2.132-0.414-2.922-1.243l-5.847-5.848c-0.828-0.787-1.241-1.751-1.241-2.891
			s0.413-2.124,1.241-2.95l18.846-18.904L55.962,67.447c-0.829-0.83-1.241-1.814-1.241-2.955c0-1.137,0.412-2.123,1.241-2.953
			l5.846-5.846c0.79-0.787,1.763-1.181,2.922-1.181c1.161,0,2.135,0.394,2.924,1.181L87.16,75.474l18.899-18.908
			c0.789-0.787,1.767-1.181,2.923-1.181c1.162,0,2.141,0.395,2.926,1.181l5.844,5.846c0.832,0.831,1.248,1.816,1.248,2.953
			c0,1.141-0.416,2.124-1.248,2.955L98.908,87.164z"/>
	</g>
</g>
</svg>
