<?xml version="1.0" encoding="iso-8859-1"?>
<!-- Generator: Adobe Illustrator 15.0.0, SVG Export Plug-In . SVG Version: 6.00 Build 0)  -->
<!DOCTYPE svg PUBLIC "-//W3C//DTD SVG 1.1//EN" "http://www.w3.org/Graphics/SVG/1.1/DTD/svg11.dtd">
<svg version="1.1" id="Ebene_4" xmlns="http://www.w3.org/2000/svg" xmlns:xlink="http://www.w3.org/1999/xlink" x="0px" y="0px"
	 width="128px" height="128px" viewBox="0 0 128 128" style="enable-background:new 0 0 128 128;" xml:space="preserve">
<g>
	<rect x="59" y="91.166" style="fill:#404547;" width="10" height="27.736"/>
</g>
<linearGradient id="SVGID_1_" gradientUnits="userSpaceOnUse" x1="64.0005" y1="52.2432" x2="64.0005" y2="19.7578">
	<stop  offset="0.3" style="stop-color:#426080"/>
	<stop  offset="1" style="stop-color:#819CBD"/>
</linearGradient>
<path style="fill:url(#SVGID_1_);" d="M119,43.694c0,4.721-3.848,8.549-8.594,8.549H17.594C12.848,52.243,9,48.416,9,43.694V28.307
	c0-4.722,3.848-8.549,8.594-8.549h92.813c4.746,0,8.594,3.827,8.594,8.549V43.694z"/>
<linearGradient id="SVGID_2_" gradientUnits="userSpaceOnUse" x1="64.0005" y1="96.5566" x2="64.0005" y2="64.0728">
	<stop  offset="0.3" style="stop-color:#426080"/>
	<stop  offset="1" style="stop-color:#819CBD"/>
</linearGradient>
<path style="fill:url(#SVGID_2_);" d="M119,88.009c0,4.722-3.848,8.548-8.594,8.548H17.594C12.848,96.557,9,92.73,9,88.009V72.62
	c0-4.721,3.848-8.548,8.594-8.548h92.813c4.746,0,8.594,3.827,8.594,8.548V88.009z"/>
<path style="fill:#FFFFFF;" d="M108.688,85.969c0,1.132-0.913,2.04-2.051,2.04H78.082c-1.138,0-2.051-0.908-2.051-2.04V74.66
	c0-1.131,0.913-2.04,2.051-2.04h28.555c1.138,0,2.051,0.909,2.051,2.04V85.969z"/>
<path style="fill:#FFFFFF;" d="M108.688,41.655c0,1.126-0.916,2.039-2.05,2.039H78.081c-1.134,0-2.05-0.913-2.05-2.039v-11.31
	c0-1.125,0.916-2.039,2.05-2.039h28.557c1.134,0,2.05,0.914,2.05,2.039V41.655z"/>
<g>
	<rect x="9" y="109.758" style="fill:#404547;" width="110" height="10"/>
</g>
</svg>
